<svg width="17" height="17" viewBox="0 0 17 17" fill="none" xmlns="http://www.w3.org/2000/svg">
<path d="M4.95374 13.2326C4.95584 13.2341 4.95764 13.2352 4.95911 13.2357C4.97789 13.2425 4.99666 13.2494 5.01532 13.2564C5.00056 13.2499 4.97957 13.2418 4.95374 13.2326Z" fill="url(#paint0_linear_1487_12)"/>
<mask id="path-2-outside-1_1487_12" maskUnits="userSpaceOnUse" x="-0.51123" y="-0.511047" width="18" height="18" fill="black">
<rect fill="white" x="-0.51123" y="-0.511047" width="18" height="18"/>
<path d="M16.3174 14.7783C16.3784 14.7783 16.4813 14.7191 16.4845 14.6652C16.4876 14.6113 16.4313 14.5118 16.3857 14.4755H13.9494C12.6108 14.4684 11.3727 15.077 10.4726 16.1865L9.1215 16.189L9.09419 15.5786C10.226 13.8996 11.9743 12.9019 13.8647 12.8911L16.396 12.8877C16.4424 12.8517 16.4925 12.7429 16.48 12.6913C16.4674 12.6399 16.3722 12.5833 16.3149 12.5833L14.0365 12.5815C12.1216 12.5801 10.372 13.424 9.0964 15.067L9.01161 12.9694C10.4281 11.641 12.2161 10.9899 14.0748 10.9927L16.359 10.9961C16.407 10.9961 16.5071 10.8888 16.4859 10.8414C16.4683 10.8018 16.4195 10.7328 16.3851 10.692L13.7797 10.696C12.0355 10.7245 10.4097 11.3651 9.01003 12.5611L8.90794 9.76383L9.28202 9.20307C10.0863 9.60945 10.8956 9.8981 11.7934 9.90496C11.8658 9.90555 11.8673 9.65697 11.8451 9.57908L12.1519 9.94172C12.8997 9.90224 13.5959 9.78498 14.291 9.49066L14.2964 9.21312L14.5283 9.39681C15.1813 9.0818 15.7246 8.69622 16.2676 8.2058C16.2898 8.15509 16.322 8.05698 16.3092 8.01384C16.2965 7.97069 16.2324 7.92424 16.1796 7.89528C13.975 6.68323 11.3573 6.97448 9.42597 8.67353L8.89603 9.21478L8.84688 7.67779C9.72938 7.66597 10.5697 7.51869 11.3768 7.12756C11.3552 6.99954 11.308 6.89151 11.2558 6.78926L11.667 7.00144C12.3248 6.61503 12.901 6.20889 13.4197 5.61941C13.4664 5.56646 13.4047 5.38762 13.3608 5.34542L13.6478 5.37201C14.0069 4.96504 14.9308 3.40643 14.7544 3.31246L14.6285 3.24544C12.2312 3.15572 10.056 4.52391 8.82948 6.89813L8.62004 0.620278C8.61845 0.572997 8.52512 0.477844 8.48547 0.490019C8.44581 0.502312 8.38781 0.557039 8.35343 0.61094L8.14883 6.88773C7.7735 6.23064 7.41082 5.67875 6.91757 5.16953C5.68009 3.85276 4.02414 3.17664 2.31524 3.24614L2.20651 3.33964C2.08703 3.44236 2.95434 4.97202 3.32947 5.37426L3.61273 5.33738L3.52721 5.53596C3.5097 5.57674 3.59185 5.66421 3.6236 5.69944C4.11684 6.24789 4.67863 6.63867 5.30623 7.0025L5.72449 6.79281C5.65193 6.85912 5.54964 7.11101 5.64772 7.15699C6.43182 7.52413 7.23375 7.66561 8.12015 7.67294L8.08197 9.21076C6.15287 7.06136 3.20639 6.54777 0.764543 7.91006C0.720249 7.93476 0.657183 8.00379 0.653597 8.04989C0.634193 8.29693 1.95341 9.20922 2.46679 9.3974L2.68826 9.19988L2.65937 9.40827C2.62941 9.62423 4.29423 9.98014 4.86677 9.92529L5.12315 9.5617L5.11039 9.78983C5.10807 9.83238 5.16734 9.88829 5.21764 9.92304C6.09867 9.86513 6.90334 9.62234 7.69198 9.19468L8.05634 9.72907L7.96681 12.5704C6.62502 11.4105 5.03752 10.7139 3.35319 10.7054L0.625228 10.6916C0.554464 10.6912 0.476633 10.8145 0.492031 10.882C0.504159 10.9345 0.598863 11.0007 0.659081 11.0005L2.9015 10.9935C4.008 10.9901 5.07706 11.2006 6.09339 11.6869C6.19379 11.5993 7.53632 12.6055 7.95689 12.9482L7.88581 15.0836C7.14421 14.127 6.24368 13.401 5.17683 12.9945L5.05492 12.9694H5.0546L4.99364 12.9567L4.77819 12.8645H4.77808C4.72166 12.8451 4.66555 12.8269 4.60987 12.81C4.03237 12.6345 3.49989 12.5878 3.15335 12.5874L0.625228 12.5846C0.553515 12.5846 0.478215 12.7054 0.491714 12.7739C0.502261 12.8276 0.597176 12.8918 0.660031 12.8917L2.89845 12.8883C3.30721 12.8877 3.6738 12.9225 4.09058 12.9824C4.14489 12.9902 4.73052 13.1535 4.95378 13.2327C4.97962 13.2419 5.0006 13.25 5.01537 13.2565C6.16426 13.6879 7.1537 14.5004 7.87959 15.5789L7.84363 16.1925L6.49763 16.1877C5.69032 15.1787 4.58688 14.5972 3.41109 14.4852C3.41109 14.4852 3.40867 14.4842 3.28285 14.476L0.664565 14.474C0.601289 14.474 0.515443 14.5316 0.493613 14.5797C0.471782 14.628 0.537801 14.779 0.59823 14.779H2.98482C4.14268 14.7788 5.24918 15.2187 6.10753 16.1834H0.666886C0.587473 16.1834 0.500679 16.26 0.489711 16.3165C0.480641 16.3632 0.538856 16.4891 0.589899 16.489L16.3876 16.4886C16.4533 16.4886 16.5033 16.3293 16.4772 16.2813C16.4554 16.2413 16.3695 16.1836 16.3108 16.1836H10.8669C11.7163 15.2355 12.8071 14.7814 13.9505 14.7805L16.3174 14.7784V14.7783ZM15.9254 8.10237C15.4817 8.50379 15.0369 8.79788 14.5476 9.0435L13.9205 8.37849C13.8772 8.36927 13.7808 8.36171 13.7594 8.39729C13.7381 8.43287 13.7201 8.51313 13.7116 8.56313L13.9994 9.2786C13.4351 9.49243 12.8537 9.60272 12.2446 9.62317L11.6438 8.71986C11.6187 8.68204 11.5258 8.62826 11.4894 8.64433C11.4458 8.6636 11.3976 8.75769 11.3833 8.81525L11.5534 9.60106C10.839 9.51536 10.1758 9.33144 9.52521 8.97825C11.3597 7.32803 13.8166 7.00711 15.9254 8.10237ZM14.4037 3.55737C14.175 4.12675 13.8737 4.59046 13.5207 5.05381L12.7327 4.76103C12.6944 4.74672 12.5744 4.76859 12.5745 4.80795L12.5753 5.00653L13.1033 5.5239C12.6662 5.99979 12.1764 6.3609 11.6424 6.66397L10.7558 6.12165C10.7215 6.10061 10.6261 6.10499 10.5928 6.12638C10.5528 6.15203 10.5361 6.2947 10.5747 6.35002L11.0056 6.96668C10.3335 7.22827 9.67918 7.36408 8.93863 7.35876C9.96488 5.04353 12.0549 3.53728 14.4037 3.55737ZM5.96579 6.96834L6.39681 6.35558C6.42518 6.31527 6.43382 6.19258 6.40545 6.15227C6.37719 6.11196 6.26361 6.0921 6.22163 6.11787L5.3384 6.66042C4.78958 6.37461 4.31026 5.98229 3.86489 5.53372L4.37543 5.02119C4.40665 4.98975 4.42173 4.87627 4.41371 4.83869C4.40348 4.79164 4.29781 4.73904 4.25647 4.75441L3.45075 5.05393C3.09513 4.58491 2.78265 4.10465 2.56666 3.55312C4.90506 3.54815 6.98138 5.01433 8.03251 7.34729C7.33088 7.38287 6.65846 7.22862 5.96579 6.96834ZM5.42118 9.59929L5.59129 8.80875L5.51325 8.65674C5.49026 8.61194 5.3597 8.6727 5.33102 8.7162L4.736 9.61844C4.13899 9.61406 3.56602 9.48936 2.97459 9.28806L3.25427 8.57353C3.26999 8.53346 3.251 8.40734 3.21525 8.3941C3.17254 8.37826 3.08712 8.38405 3.03333 8.39658L2.42514 9.04787C1.94054 8.79906 1.48896 8.50899 1.04528 8.10556C3.15746 6.99623 5.61449 7.33878 7.44857 8.97707C6.79745 9.32648 6.13706 9.51619 5.42118 9.59929ZM8.43801 6.41562L8.49127 5.46599L8.57047 7.41526C8.57775 7.59528 8.46796 7.80639 8.38507 7.95285L8.43801 6.41562ZM8.58471 8.38677L8.66138 10.4513L8.34826 9.66465C8.38148 9.23203 8.45372 8.82944 8.58471 8.38677ZM8.31051 10.4015C8.54115 10.9898 8.61655 11.6304 8.7101 12.3062L8.21011 13.4441L8.31051 10.4015ZM8.12753 16.1879C8.13133 15.2137 8.27623 14.2868 8.54568 13.3696C8.59103 13.2152 8.65146 13.0786 8.74522 12.9247L8.84899 16.1849L8.12753 16.1879Z"/>
</mask>
<path d="M16.3174 14.7783C16.3784 14.7783 16.4813 14.7191 16.4845 14.6652C16.4876 14.6113 16.4313 14.5118 16.3857 14.4755H13.9494C12.6108 14.4684 11.3727 15.077 10.4726 16.1865L9.1215 16.189L9.09419 15.5786C10.226 13.8996 11.9743 12.9019 13.8647 12.8911L16.396 12.8877C16.4424 12.8517 16.4925 12.7429 16.48 12.6913C16.4674 12.6399 16.3722 12.5833 16.3149 12.5833L14.0365 12.5815C12.1216 12.5801 10.372 13.424 9.0964 15.067L9.01161 12.9694C10.4281 11.641 12.2161 10.9899 14.0748 10.9927L16.359 10.9961C16.407 10.9961 16.5071 10.8888 16.4859 10.8414C16.4683 10.8018 16.4195 10.7328 16.3851 10.692L13.7797 10.696C12.0355 10.7245 10.4097 11.3651 9.01003 12.5611L8.90794 9.76383L9.28202 9.20307C10.0863 9.60945 10.8956 9.8981 11.7934 9.90496C11.8658 9.90555 11.8673 9.65697 11.8451 9.57908L12.1519 9.94172C12.8997 9.90224 13.5959 9.78498 14.291 9.49066L14.2964 9.21312L14.5283 9.39681C15.1813 9.0818 15.7246 8.69622 16.2676 8.2058C16.2898 8.15509 16.322 8.05698 16.3092 8.01384C16.2965 7.97069 16.2324 7.92424 16.1796 7.89528C13.975 6.68323 11.3573 6.97448 9.42597 8.67353L8.89603 9.21478L8.84688 7.67779C9.72938 7.66597 10.5697 7.51869 11.3768 7.12756C11.3552 6.99954 11.308 6.89151 11.2558 6.78926L11.667 7.00144C12.3248 6.61503 12.901 6.20889 13.4197 5.61941C13.4664 5.56646 13.4047 5.38762 13.3608 5.34542L13.6478 5.37201C14.0069 4.96504 14.9308 3.40643 14.7544 3.31246L14.6285 3.24544C12.2312 3.15572 10.056 4.52391 8.82948 6.89813L8.62004 0.620278C8.61845 0.572997 8.52512 0.477844 8.48547 0.490019C8.44581 0.502312 8.38781 0.557039 8.35343 0.61094L8.14883 6.88773C7.7735 6.23064 7.41082 5.67875 6.91757 5.16953C5.68009 3.85276 4.02414 3.17664 2.31524 3.24614L2.20651 3.33964C2.08703 3.44236 2.95434 4.97202 3.32947 5.37426L3.61273 5.33738L3.52721 5.53596C3.5097 5.57674 3.59185 5.66421 3.6236 5.69944C4.11684 6.24789 4.67863 6.63867 5.30623 7.0025L5.72449 6.79281C5.65193 6.85912 5.54964 7.11101 5.64772 7.15699C6.43182 7.52413 7.23375 7.66561 8.12015 7.67294L8.08197 9.21076C6.15287 7.06136 3.20639 6.54777 0.764543 7.91006C0.720249 7.93476 0.657183 8.00379 0.653597 8.04989C0.634193 8.29693 1.95341 9.20922 2.46679 9.3974L2.68826 9.19988L2.65937 9.40827C2.62941 9.62423 4.29423 9.98014 4.86677 9.92529L5.12315 9.5617L5.11039 9.78983C5.10807 9.83238 5.16734 9.88829 5.21764 9.92304C6.09867 9.86513 6.90334 9.62234 7.69198 9.19468L8.05634 9.72907L7.96681 12.5704C6.62502 11.4105 5.03752 10.7139 3.35319 10.7054L0.625228 10.6916C0.554464 10.6912 0.476633 10.8145 0.492031 10.882C0.504159 10.9345 0.598863 11.0007 0.659081 11.0005L2.9015 10.9935C4.008 10.9901 5.07706 11.2006 6.09339 11.6869C6.19379 11.5993 7.53632 12.6055 7.95689 12.9482L7.88581 15.0836C7.14421 14.127 6.24368 13.401 5.17683 12.9945L5.05492 12.9694H5.0546L4.99364 12.9567L4.77819 12.8645H4.77808C4.72166 12.8451 4.66555 12.8269 4.60987 12.81C4.03237 12.6345 3.49989 12.5878 3.15335 12.5874L0.625228 12.5846C0.553515 12.5846 0.478215 12.7054 0.491714 12.7739C0.502261 12.8276 0.597176 12.8918 0.660031 12.8917L2.89845 12.8883C3.30721 12.8877 3.6738 12.9225 4.09058 12.9824C4.14489 12.9902 4.73052 13.1535 4.95378 13.2327C4.97962 13.2419 5.0006 13.25 5.01537 13.2565C6.16426 13.6879 7.1537 14.5004 7.87959 15.5789L7.84363 16.1925L6.49763 16.1877C5.69032 15.1787 4.58688 14.5972 3.41109 14.4852C3.41109 14.4852 3.40867 14.4842 3.28285 14.476L0.664565 14.474C0.601289 14.474 0.515443 14.5316 0.493613 14.5797C0.471782 14.628 0.537801 14.779 0.59823 14.779H2.98482C4.14268 14.7788 5.24918 15.2187 6.10753 16.1834H0.666886C0.587473 16.1834 0.500679 16.26 0.489711 16.3165C0.480641 16.3632 0.538856 16.4891 0.589899 16.489L16.3876 16.4886C16.4533 16.4886 16.5033 16.3293 16.4772 16.2813C16.4554 16.2413 16.3695 16.1836 16.3108 16.1836H10.8669C11.7163 15.2355 12.8071 14.7814 13.9505 14.7805L16.3174 14.7784V14.7783ZM15.9254 8.10237C15.4817 8.50379 15.0369 8.79788 14.5476 9.0435L13.9205 8.37849C13.8772 8.36927 13.7808 8.36171 13.7594 8.39729C13.7381 8.43287 13.7201 8.51313 13.7116 8.56313L13.9994 9.2786C13.4351 9.49243 12.8537 9.60272 12.2446 9.62317L11.6438 8.71986C11.6187 8.68204 11.5258 8.62826 11.4894 8.64433C11.4458 8.6636 11.3976 8.75769 11.3833 8.81525L11.5534 9.60106C10.839 9.51536 10.1758 9.33144 9.52521 8.97825C11.3597 7.32803 13.8166 7.00711 15.9254 8.10237ZM14.4037 3.55737C14.175 4.12675 13.8737 4.59046 13.5207 5.05381L12.7327 4.76103C12.6944 4.74672 12.5744 4.76859 12.5745 4.80795L12.5753 5.00653L13.1033 5.5239C12.6662 5.99979 12.1764 6.3609 11.6424 6.66397L10.7558 6.12165C10.7215 6.10061 10.6261 6.10499 10.5928 6.12638C10.5528 6.15203 10.5361 6.2947 10.5747 6.35002L11.0056 6.96668C10.3335 7.22827 9.67918 7.36408 8.93863 7.35876C9.96488 5.04353 12.0549 3.53728 14.4037 3.55737ZM5.96579 6.96834L6.39681 6.35558C6.42518 6.31527 6.43382 6.19258 6.40545 6.15227C6.37719 6.11196 6.26361 6.0921 6.22163 6.11787L5.3384 6.66042C4.78958 6.37461 4.31026 5.98229 3.86489 5.53372L4.37543 5.02119C4.40665 4.98975 4.42173 4.87627 4.41371 4.83869C4.40348 4.79164 4.29781 4.73904 4.25647 4.75441L3.45075 5.05393C3.09513 4.58491 2.78265 4.10465 2.56666 3.55312C4.90506 3.54815 6.98138 5.01433 8.03251 7.34729C7.33088 7.38287 6.65846 7.22862 5.96579 6.96834ZM5.42118 9.59929L5.59129 8.80875L5.51325 8.65674C5.49026 8.61194 5.3597 8.6727 5.33102 8.7162L4.736 9.61844C4.13899 9.61406 3.56602 9.48936 2.97459 9.28806L3.25427 8.57353C3.26999 8.53346 3.251 8.40734 3.21525 8.3941C3.17254 8.37826 3.08712 8.38405 3.03333 8.39658L2.42514 9.04787C1.94054 8.79906 1.48896 8.50899 1.04528 8.10556C3.15746 6.99623 5.61449 7.33878 7.44857 8.97707C6.79745 9.32648 6.13706 9.51619 5.42118 9.59929ZM8.43801 6.41562L8.49127 5.46599L8.57047 7.41526C8.57775 7.59528 8.46796 7.80639 8.38507 7.95285L8.43801 6.41562ZM8.58471 8.38677L8.66138 10.4513L8.34826 9.66465C8.38148 9.23203 8.45372 8.82944 8.58471 8.38677ZM8.31051 10.4015C8.54115 10.9898 8.61655 11.6304 8.7101 12.3062L8.21011 13.4441L8.31051 10.4015ZM8.12753 16.1879C8.13133 15.2137 8.27623 14.2868 8.54568 13.3696C8.59103 13.2152 8.65146 13.0786 8.74522 12.9247L8.84899 16.1849L8.12753 16.1879Z" fill="url(#paint1_linear_1487_12)"/>
<path d="M16.3174 14.7783C16.3784 14.7783 16.4813 14.7191 16.4845 14.6652C16.4876 14.6113 16.4313 14.5118 16.3857 14.4755H13.9494C12.6108 14.4684 11.3727 15.077 10.4726 16.1865L9.1215 16.189L9.09419 15.5786C10.226 13.8996 11.9743 12.9019 13.8647 12.8911L16.396 12.8877C16.4424 12.8517 16.4925 12.7429 16.48 12.6913C16.4674 12.6399 16.3722 12.5833 16.3149 12.5833L14.0365 12.5815C12.1216 12.5801 10.372 13.424 9.0964 15.067L9.01161 12.9694C10.4281 11.641 12.2161 10.9899 14.0748 10.9927L16.359 10.9961C16.407 10.9961 16.5071 10.8888 16.4859 10.8414C16.4683 10.8018 16.4195 10.7328 16.3851 10.692L13.7797 10.696C12.0355 10.7245 10.4097 11.3651 9.01003 12.5611L8.90794 9.76383L9.28202 9.20307C10.0863 9.60945 10.8956 9.8981 11.7934 9.90496C11.8658 9.90555 11.8673 9.65697 11.8451 9.57908L12.1519 9.94172C12.8997 9.90224 13.5959 9.78498 14.291 9.49066L14.2964 9.21312L14.5283 9.39681C15.1813 9.0818 15.7246 8.69622 16.2676 8.2058C16.2898 8.15509 16.322 8.05698 16.3092 8.01384C16.2965 7.97069 16.2324 7.92424 16.1796 7.89528C13.975 6.68323 11.3573 6.97448 9.42597 8.67353L8.89603 9.21478L8.84688 7.67779C9.72938 7.66597 10.5697 7.51869 11.3768 7.12756C11.3552 6.99954 11.308 6.89151 11.2558 6.78926L11.667 7.00144C12.3248 6.61503 12.901 6.20889 13.4197 5.61941C13.4664 5.56646 13.4047 5.38762 13.3608 5.34542L13.6478 5.37201C14.0069 4.96504 14.9308 3.40643 14.7544 3.31246L14.6285 3.24544C12.2312 3.15572 10.056 4.52391 8.82948 6.89813L8.62004 0.620278C8.61845 0.572997 8.52512 0.477844 8.48547 0.490019C8.44581 0.502312 8.38781 0.557039 8.35343 0.61094L8.14883 6.88773C7.7735 6.23064 7.41082 5.67875 6.91757 5.16953C5.68009 3.85276 4.02414 3.17664 2.31524 3.24614L2.20651 3.33964C2.08703 3.44236 2.95434 4.97202 3.32947 5.37426L3.61273 5.33738L3.52721 5.53596C3.5097 5.57674 3.59185 5.66421 3.6236 5.69944C4.11684 6.24789 4.67863 6.63867 5.30623 7.0025L5.72449 6.79281C5.65193 6.85912 5.54964 7.11101 5.64772 7.15699C6.43182 7.52413 7.23375 7.66561 8.12015 7.67294L8.08197 9.21076C6.15287 7.06136 3.20639 6.54777 0.764543 7.91006C0.720249 7.93476 0.657183 8.00379 0.653597 8.04989C0.634193 8.29693 1.95341 9.20922 2.46679 9.3974L2.68826 9.19988L2.65937 9.40827C2.62941 9.62423 4.29423 9.98014 4.86677 9.92529L5.12315 9.5617L5.11039 9.78983C5.10807 9.83238 5.16734 9.88829 5.21764 9.92304C6.09867 9.86513 6.90334 9.62234 7.69198 9.19468L8.05634 9.72907L7.96681 12.5704C6.62502 11.4105 5.03752 10.7139 3.35319 10.7054L0.625228 10.6916C0.554464 10.6912 0.476633 10.8145 0.492031 10.882C0.504159 10.9345 0.598863 11.0007 0.659081 11.0005L2.9015 10.9935C4.008 10.9901 5.07706 11.2006 6.09339 11.6869C6.19379 11.5993 7.53632 12.6055 7.95689 12.9482L7.88581 15.0836C7.14421 14.127 6.24368 13.401 5.17683 12.9945L5.05492 12.9694H5.0546L4.99364 12.9567L4.77819 12.8645H4.77808C4.72166 12.8451 4.66555 12.8269 4.60987 12.81C4.03237 12.6345 3.49989 12.5878 3.15335 12.5874L0.625228 12.5846C0.553515 12.5846 0.478215 12.7054 0.491714 12.7739C0.502261 12.8276 0.597176 12.8918 0.660031 12.8917L2.89845 12.8883C3.30721 12.8877 3.6738 12.9225 4.09058 12.9824C4.14489 12.9902 4.73052 13.1535 4.95378 13.2327C4.97962 13.2419 5.0006 13.25 5.01537 13.2565C6.16426 13.6879 7.1537 14.5004 7.87959 15.5789L7.84363 16.1925L6.49763 16.1877C5.69032 15.1787 4.58688 14.5972 3.41109 14.4852C3.41109 14.4852 3.40867 14.4842 3.28285 14.476L0.664565 14.474C0.601289 14.474 0.515443 14.5316 0.493613 14.5797C0.471782 14.628 0.537801 14.779 0.59823 14.779H2.98482C4.14268 14.7788 5.24918 15.2187 6.10753 16.1834H0.666886C0.587473 16.1834 0.500679 16.26 0.489711 16.3165C0.480641 16.3632 0.538856 16.4891 0.589899 16.489L16.3876 16.4886C16.4533 16.4886 16.5033 16.3293 16.4772 16.2813C16.4554 16.2413 16.3695 16.1836 16.3108 16.1836H10.8669C11.7163 15.2355 12.8071 14.7814 13.9505 14.7805L16.3174 14.7784V14.7783ZM15.9254 8.10237C15.4817 8.50379 15.0369 8.79788 14.5476 9.0435L13.9205 8.37849C13.8772 8.36927 13.7808 8.36171 13.7594 8.39729C13.7381 8.43287 13.7201 8.51313 13.7116 8.56313L13.9994 9.2786C13.4351 9.49243 12.8537 9.60272 12.2446 9.62317L11.6438 8.71986C11.6187 8.68204 11.5258 8.62826 11.4894 8.64433C11.4458 8.6636 11.3976 8.75769 11.3833 8.81525L11.5534 9.60106C10.839 9.51536 10.1758 9.33144 9.52521 8.97825C11.3597 7.32803 13.8166 7.00711 15.9254 8.10237ZM14.4037 3.55737C14.175 4.12675 13.8737 4.59046 13.5207 5.05381L12.7327 4.76103C12.6944 4.74672 12.5744 4.76859 12.5745 4.80795L12.5753 5.00653L13.1033 5.5239C12.6662 5.99979 12.1764 6.3609 11.6424 6.66397L10.7558 6.12165C10.7215 6.10061 10.6261 6.10499 10.5928 6.12638C10.5528 6.15203 10.5361 6.2947 10.5747 6.35002L11.0056 6.96668C10.3335 7.22827 9.67918 7.36408 8.93863 7.35876C9.96488 5.04353 12.0549 3.53728 14.4037 3.55737ZM5.96579 6.96834L6.39681 6.35558C6.42518 6.31527 6.43382 6.19258 6.40545 6.15227C6.37719 6.11196 6.26361 6.0921 6.22163 6.11787L5.3384 6.66042C4.78958 6.37461 4.31026 5.98229 3.86489 5.53372L4.37543 5.02119C4.40665 4.98975 4.42173 4.87627 4.41371 4.83869C4.40348 4.79164 4.29781 4.73904 4.25647 4.75441L3.45075 5.05393C3.09513 4.58491 2.78265 4.10465 2.56666 3.55312C4.90506 3.54815 6.98138 5.01433 8.03251 7.34729C7.33088 7.38287 6.65846 7.22862 5.96579 6.96834ZM5.42118 9.59929L5.59129 8.80875L5.51325 8.65674C5.49026 8.61194 5.3597 8.6727 5.33102 8.7162L4.736 9.61844C4.13899 9.61406 3.56602 9.48936 2.97459 9.28806L3.25427 8.57353C3.26999 8.53346 3.251 8.40734 3.21525 8.3941C3.17254 8.37826 3.08712 8.38405 3.03333 8.39658L2.42514 9.04787C1.94054 8.79906 1.48896 8.50899 1.04528 8.10556C3.15746 6.99623 5.61449 7.33878 7.44857 8.97707C6.79745 9.32648 6.13706 9.51619 5.42118 9.59929ZM8.43801 6.41562L8.49127 5.46599L8.57047 7.41526C8.57775 7.59528 8.46796 7.80639 8.38507 7.95285L8.43801 6.41562ZM8.58471 8.38677L8.66138 10.4513L8.34826 9.66465C8.38148 9.23203 8.45372 8.82944 8.58471 8.38677ZM8.31051 10.4015C8.54115 10.9898 8.61655 11.6304 8.7101 12.3062L8.21011 13.4441L8.31051 10.4015ZM8.12753 16.1879C8.13133 15.2137 8.27623 14.2868 8.54568 13.3696C8.59103 13.2152 8.65146 13.0786 8.74522 12.9247L8.84899 16.1849L8.12753 16.1879Z" stroke="url(#paint2_linear_1487_12)" stroke-width="0.977622" mask="url(#path-2-outside-1_1487_12)"/>
<path d="M5.05455 12.9693L4.99359 12.9566L4.77814 12.8644C4.86968 12.896 4.96206 12.9308 5.05455 12.9693Z" fill="url(#paint3_linear_1487_12)"/>
<defs>
<linearGradient id="paint0_linear_1487_12" x1="4.98453" y1="13.25" x2="4.98453" y2="13.2564" gradientUnits="userSpaceOnUse">
<stop stop-color="#1E8A4B"/>
<stop offset="1" stop-color="#AD6430"/>
</linearGradient>
<linearGradient id="paint1_linear_1487_12" x1="8.48877" y1="12.2286" x2="8.48877" y2="16.489" gradientUnits="userSpaceOnUse">
<stop stop-color="#23C867"/>
<stop offset="1" stop-color="#AD6430"/>
</linearGradient>
<linearGradient id="paint2_linear_1487_12" x1="8.48877" y1="11.5049" x2="8.48877" y2="16.489" gradientUnits="userSpaceOnUse">
<stop stop-color="#23C867"/>
<stop offset="1" stop-color="#AD6430"/>
</linearGradient>
<linearGradient id="paint3_linear_1487_12" x1="4.91634" y1="12.9414" x2="4.91634" y2="12.9693" gradientUnits="userSpaceOnUse">
<stop stop-color="#1E8A4B"/>
<stop offset="1" stop-color="#AD6430"/>
</linearGradient>
</defs>
</svg>
