<svg width="33" height="33" viewBox="0 0 33 33" fill="none" xmlns="http://www.w3.org/2000/svg">
<mask id="path-1-outside-1_671_22" maskUnits="userSpaceOnUse" x="-0.51123" y="-0.510986" width="34" height="34" fill="black">
<rect fill="white" x="-0.51123" y="-0.510986" width="34" height="34"/>
<path d="M32.1461 29.0678C32.268 29.0678 32.4739 28.9493 32.4802 28.8415C32.4863 28.7337 32.3739 28.5347 32.2826 28.4621H27.4101C24.7328 28.4479 22.2566 29.6652 20.4564 31.8841L17.7542 31.889L17.6996 30.6682C19.9632 27.3103 23.4599 25.3148 27.2407 25.2933L32.3033 25.2865C32.3961 25.2146 32.4962 24.9969 32.4711 24.8938C32.446 24.791 32.2556 24.6777 32.1411 24.6777L27.5843 24.6742C23.7544 24.6713 20.2551 26.359 17.704 29.6451L17.5345 25.4498C20.3674 22.7931 23.9433 21.491 27.6608 21.4964L32.2292 21.5033C32.3252 21.5033 32.5254 21.2886 32.483 21.1938C32.4477 21.1146 32.3503 20.9768 32.2815 20.895L27.0707 20.903C23.5822 20.96 20.3307 22.2413 17.5313 24.6333L17.3271 19.0388L18.0753 17.9173C19.6838 18.73 21.3024 19.3073 23.098 19.321C23.2429 19.3222 23.2458 18.8251 23.2015 18.6693L23.8151 19.3946C25.3105 19.3156 26.703 19.0811 28.0932 18.4924L28.104 17.9373L28.5678 18.3047C29.8738 17.6747 30.9605 16.9036 32.0463 15.9227C32.0909 15.8213 32.1552 15.6251 32.1297 15.5388C32.1041 15.4525 31.9761 15.3596 31.8704 15.3017C27.4613 12.8776 22.2258 13.4601 18.3632 16.8582L17.3033 17.9407L17.205 14.8667C18.97 14.843 20.6506 14.5485 22.2648 13.7662C22.2216 13.5102 22.1273 13.2941 22.0229 13.0896L22.8453 13.514C24.1608 12.7412 25.3133 11.9289 26.3506 10.7499C26.444 10.644 26.3206 10.2863 26.2329 10.2019L26.8068 10.2551C27.525 9.4412 29.3729 6.32396 29.02 6.13602L28.7682 6.00198C23.9737 5.82255 19.6232 8.55893 17.1702 13.3074L16.7513 0.751664C16.7481 0.657102 16.5615 0.466796 16.4822 0.491146C16.4029 0.515732 16.2868 0.625187 16.2181 0.732988L15.8089 13.2866C15.0582 11.9724 14.3329 10.8686 13.3464 9.85018C10.8714 7.21663 7.55951 5.86439 4.14172 6.0034L3.92426 6.19039C3.68528 6.39583 5.41991 9.45514 6.17016 10.2596L6.7367 10.1859L6.56564 10.583C6.53063 10.6646 6.69494 10.8395 6.75843 10.91C7.74491 12.0069 8.86849 12.7885 10.1237 13.5161L10.9602 13.0967C10.8151 13.2293 10.6105 13.7331 10.8067 13.8251C12.3749 14.5594 13.9787 14.8423 15.7515 14.857L15.6752 17.9326C11.817 13.6338 5.92402 12.6067 1.04032 15.3312C0.951728 15.3806 0.825597 15.5187 0.818425 15.6109C0.779616 16.105 3.41805 17.9295 4.44482 18.3059L4.88775 17.9109L4.82996 18.3277C4.77006 18.7596 8.09968 19.4714 9.24478 19.3617L9.75753 18.6345L9.73201 19.0908C9.72737 19.1759 9.84591 19.2877 9.94652 19.3572C11.7086 19.2414 13.3179 18.7558 14.8952 17.9005L15.6239 18.9693L15.4448 24.652C12.7613 22.3321 9.58626 20.939 6.21762 20.922L0.761687 20.8943C0.620158 20.8936 0.464497 21.1402 0.495292 21.2752C0.519548 21.3801 0.708957 21.5125 0.829393 21.512L5.31424 21.4981C7.52724 21.4912 9.66536 21.9123 11.698 22.8848C11.8988 22.7097 14.5839 24.7222 15.425 25.4075L15.2829 29.6784C13.7997 27.7652 11.9986 26.3132 9.86489 25.5002L9.62107 25.4498L9.49852 25.4245L9.06761 25.2401C8.95476 25.2014 8.84234 25.165 8.73097 25.1312C7.57596 24.7801 6.51101 24.6867 5.81792 24.686L0.761687 24.6803C0.61826 24.6803 0.467661 24.9219 0.494659 25.0588C0.515751 25.1664 0.705582 25.2947 0.831292 25.2945L5.30812 25.2877C6.12566 25.2865 6.85882 25.3562 7.69239 25.4758C7.80102 25.4914 8.97227 25.8181 9.41879 25.9765C9.47047 25.995 9.51244 26.011 9.54197 26.0241C11.8398 26.8869 13.8186 28.512 15.2704 30.6689L15.1985 31.8961L12.5065 31.8864C10.8919 29.8685 8.68499 28.7056 6.33342 28.4815C6.33342 28.4815 6.32857 28.4796 6.07693 28.463L0.840361 28.459C0.713808 28.459 0.542117 28.5744 0.498456 28.6706C0.454795 28.7671 0.586832 29.0692 0.707691 29.0692H5.48087C7.79659 29.0687 10.0096 29.9486 11.7263 31.8779H0.845001C0.686177 31.8779 0.512588 32.0311 0.490652 32.1441C0.472512 32.2375 0.588942 32.4893 0.691028 32.489L32.2864 32.4883C32.4178 32.4883 32.5178 32.1696 32.4657 32.0737C32.422 31.9937 32.2503 31.8784 32.1328 31.8784H21.245C22.9438 29.9822 25.1253 29.0739 27.4122 29.072L32.1461 29.0678ZM31.3621 15.7159C30.4746 16.5187 29.5851 17.1069 28.6064 17.5981L27.3523 16.2681C27.2656 16.2497 27.0728 16.2345 27.03 16.3057C26.9874 16.3768 26.9515 16.5374 26.9344 16.6374L27.51 18.0683C26.3814 18.496 25.2186 18.7165 24.0005 18.7574L22.7989 16.9508C22.7487 16.8752 22.5629 16.7676 22.4901 16.7998C22.4028 16.8383 22.3064 17.0265 22.2779 17.1416L22.6181 18.7132C21.1893 18.5418 19.8628 18.174 18.5616 17.4676C22.2306 14.1672 27.1445 13.5253 31.3621 15.7159ZM28.3187 6.62585C27.8612 7.76461 27.2586 8.69203 26.5527 9.61874L24.9766 9.03316C24.9001 9.00456 24.6601 9.04829 24.6603 9.12702L24.6617 9.52417L25.7178 10.5589C24.8436 11.5107 23.864 12.2329 22.7961 12.839L21.0229 11.7544C20.9541 11.7123 20.7635 11.7211 20.6968 11.7639C20.6169 11.8152 20.5833 12.1005 20.6605 12.2112L21.5224 13.4445C20.1782 13.9676 18.8696 14.2393 17.3885 14.2286C19.441 9.59817 23.621 6.58566 28.3187 6.62585ZM11.4428 13.4478L12.3048 12.2223C12.3616 12.1416 12.3789 11.8963 12.3221 11.8156C12.2656 11.735 12.0384 11.6953 11.9545 11.7469L10.188 12.832C9.09038 12.2603 8.13174 11.4757 7.24102 10.5785L8.26209 9.55349C8.32453 9.4906 8.35469 9.26366 8.33866 9.18848C8.3182 9.09439 8.10685 8.98919 8.02417 9.01992L6.41272 9.61897C5.70149 8.68092 5.07653 7.72041 4.64456 6.61734C9.32134 6.60741 13.474 9.53978 15.5763 14.2057C14.173 14.2769 12.8281 13.9683 11.4428 13.4478ZM10.3536 18.7097L10.6938 17.1286L10.5377 16.8246C10.4918 16.735 10.2306 16.8565 10.1733 16.9435L8.98324 18.748C7.7892 18.7392 6.64326 18.4898 5.46041 18.0872L6.01977 16.6582C6.0512 16.578 6.01324 16.3258 5.94173 16.2993C5.85631 16.2676 5.68546 16.2792 5.57789 16.3043L4.3615 17.6069C3.39231 17.1092 2.48914 16.5291 1.60179 15.7222C5.82615 13.5036 10.7402 14.1887 14.4084 17.4652C13.1061 18.1641 11.7853 18.5435 10.3536 18.7097ZM16.3872 12.3424L16.4938 10.4431L16.6522 14.3416C16.6667 14.7017 16.4472 15.1239 16.2814 15.4168L16.3872 12.3424ZM16.6806 16.2846L16.834 20.4137L16.2078 18.8404C16.2742 17.9752 16.4187 17.17 16.6806 16.2846ZM16.1322 20.3142C16.5935 21.4908 16.7443 22.7718 16.9314 24.1236L15.9314 26.3992L16.1322 20.3142ZM15.7663 31.8869C15.7739 29.9384 16.0637 28.0848 16.6026 26.2503C16.6933 25.9415 16.8142 25.6683 17.0017 25.3605L17.2092 31.881L15.7663 31.8869Z"/>
</mask>
<path d="M32.1461 29.0678C32.268 29.0678 32.4739 28.9493 32.4802 28.8415C32.4863 28.7337 32.3739 28.5347 32.2826 28.4621H27.4101C24.7328 28.4479 22.2566 29.6652 20.4564 31.8841L17.7542 31.889L17.6996 30.6682C19.9632 27.3103 23.4599 25.3148 27.2407 25.2933L32.3033 25.2865C32.3961 25.2146 32.4962 24.9969 32.4711 24.8938C32.446 24.791 32.2556 24.6777 32.1411 24.6777L27.5843 24.6742C23.7544 24.6713 20.2551 26.359 17.704 29.6451L17.5345 25.4498C20.3674 22.7931 23.9433 21.491 27.6608 21.4964L32.2292 21.5033C32.3252 21.5033 32.5254 21.2886 32.483 21.1938C32.4477 21.1146 32.3503 20.9768 32.2815 20.895L27.0707 20.903C23.5822 20.96 20.3307 22.2413 17.5313 24.6333L17.3271 19.0388L18.0753 17.9173C19.6838 18.73 21.3024 19.3073 23.098 19.321C23.2429 19.3222 23.2458 18.8251 23.2015 18.6693L23.8151 19.3946C25.3105 19.3156 26.703 19.0811 28.0932 18.4924L28.104 17.9373L28.5678 18.3047C29.8738 17.6747 30.9605 16.9036 32.0463 15.9227C32.0909 15.8213 32.1552 15.6251 32.1297 15.5388C32.1041 15.4525 31.9761 15.3596 31.8704 15.3017C27.4613 12.8776 22.2258 13.4601 18.3632 16.8582L17.3033 17.9407L17.205 14.8667C18.97 14.843 20.6506 14.5485 22.2648 13.7662C22.2216 13.5102 22.1273 13.2941 22.0229 13.0896L22.8453 13.514C24.1608 12.7412 25.3133 11.9289 26.3506 10.7499C26.444 10.644 26.3206 10.2863 26.2329 10.2019L26.8068 10.2551C27.525 9.4412 29.3729 6.32396 29.02 6.13602L28.7682 6.00198C23.9737 5.82255 19.6232 8.55893 17.1702 13.3074L16.7513 0.751664C16.7481 0.657102 16.5615 0.466796 16.4822 0.491146C16.4029 0.515732 16.2868 0.625187 16.2181 0.732988L15.8089 13.2866C15.0582 11.9724 14.3329 10.8686 13.3464 9.85018C10.8714 7.21663 7.55951 5.86439 4.14172 6.0034L3.92426 6.19039C3.68528 6.39583 5.41991 9.45514 6.17016 10.2596L6.7367 10.1859L6.56564 10.583C6.53063 10.6646 6.69494 10.8395 6.75843 10.91C7.74491 12.0069 8.86849 12.7885 10.1237 13.5161L10.9602 13.0967C10.8151 13.2293 10.6105 13.7331 10.8067 13.8251C12.3749 14.5594 13.9787 14.8423 15.7515 14.857L15.6752 17.9326C11.817 13.6338 5.92402 12.6067 1.04032 15.3312C0.951728 15.3806 0.825597 15.5187 0.818425 15.6109C0.779616 16.105 3.41805 17.9295 4.44482 18.3059L4.88775 17.9109L4.82996 18.3277C4.77006 18.7596 8.09968 19.4714 9.24478 19.3617L9.75753 18.6345L9.73201 19.0908C9.72737 19.1759 9.84591 19.2877 9.94652 19.3572C11.7086 19.2414 13.3179 18.7558 14.8952 17.9005L15.6239 18.9693L15.4448 24.652C12.7613 22.3321 9.58626 20.939 6.21762 20.922L0.761687 20.8943C0.620158 20.8936 0.464497 21.1402 0.495292 21.2752C0.519548 21.3801 0.708957 21.5125 0.829393 21.512L5.31424 21.4981C7.52724 21.4912 9.66536 21.9123 11.698 22.8848C11.8988 22.7097 14.5839 24.7222 15.425 25.4075L15.2829 29.6784C13.7997 27.7652 11.9986 26.3132 9.86489 25.5002L9.62107 25.4498L9.49852 25.4245L9.06761 25.2401C8.95476 25.2014 8.84234 25.165 8.73097 25.1312C7.57596 24.7801 6.51101 24.6867 5.81792 24.686L0.761687 24.6803C0.61826 24.6803 0.467661 24.9219 0.494659 25.0588C0.515751 25.1664 0.705582 25.2947 0.831292 25.2945L5.30812 25.2877C6.12566 25.2865 6.85882 25.3562 7.69239 25.4758C7.80102 25.4914 8.97227 25.8181 9.41879 25.9765C9.47047 25.995 9.51244 26.011 9.54197 26.0241C11.8398 26.8869 13.8186 28.512 15.2704 30.6689L15.1985 31.8961L12.5065 31.8864C10.8919 29.8685 8.68499 28.7056 6.33342 28.4815C6.33342 28.4815 6.32857 28.4796 6.07693 28.463L0.840361 28.459C0.713808 28.459 0.542117 28.5744 0.498456 28.6706C0.454795 28.7671 0.586832 29.0692 0.707691 29.0692H5.48087C7.79659 29.0687 10.0096 29.9486 11.7263 31.8779H0.845001C0.686177 31.8779 0.512588 32.0311 0.490652 32.1441C0.472512 32.2375 0.588942 32.4893 0.691028 32.489L32.2864 32.4883C32.4178 32.4883 32.5178 32.1696 32.4657 32.0737C32.422 31.9937 32.2503 31.8784 32.1328 31.8784H21.245C22.9438 29.9822 25.1253 29.0739 27.4122 29.072L32.1461 29.0678ZM31.3621 15.7159C30.4746 16.5187 29.5851 17.1069 28.6064 17.5981L27.3523 16.2681C27.2656 16.2497 27.0728 16.2345 27.03 16.3057C26.9874 16.3768 26.9515 16.5374 26.9344 16.6374L27.51 18.0683C26.3814 18.496 25.2186 18.7165 24.0005 18.7574L22.7989 16.9508C22.7487 16.8752 22.5629 16.7676 22.4901 16.7998C22.4028 16.8383 22.3064 17.0265 22.2779 17.1416L22.6181 18.7132C21.1893 18.5418 19.8628 18.174 18.5616 17.4676C22.2306 14.1672 27.1445 13.5253 31.3621 15.7159ZM28.3187 6.62585C27.8612 7.76461 27.2586 8.69203 26.5527 9.61874L24.9766 9.03316C24.9001 9.00456 24.6601 9.04829 24.6603 9.12702L24.6617 9.52417L25.7178 10.5589C24.8436 11.5107 23.864 12.2329 22.7961 12.839L21.0229 11.7544C20.9541 11.7123 20.7635 11.7211 20.6968 11.7639C20.6169 11.8152 20.5833 12.1005 20.6605 12.2112L21.5224 13.4445C20.1782 13.9676 18.8696 14.2393 17.3885 14.2286C19.441 9.59817 23.621 6.58566 28.3187 6.62585ZM11.4428 13.4478L12.3048 12.2223C12.3616 12.1416 12.3789 11.8963 12.3221 11.8156C12.2656 11.735 12.0384 11.6953 11.9545 11.7469L10.188 12.832C9.09038 12.2603 8.13174 11.4757 7.24102 10.5785L8.26209 9.55349C8.32453 9.4906 8.35469 9.26366 8.33866 9.18848C8.3182 9.09439 8.10685 8.98919 8.02417 9.01992L6.41272 9.61897C5.70149 8.68092 5.07653 7.72041 4.64456 6.61734C9.32134 6.60741 13.474 9.53978 15.5763 14.2057C14.173 14.2769 12.8281 13.9683 11.4428 13.4478ZM10.3536 18.7097L10.6938 17.1286L10.5377 16.8246C10.4918 16.735 10.2306 16.8565 10.1733 16.9435L8.98324 18.748C7.7892 18.7392 6.64326 18.4898 5.46041 18.0872L6.01977 16.6582C6.0512 16.578 6.01324 16.3258 5.94173 16.2993C5.85631 16.2676 5.68546 16.2792 5.57789 16.3043L4.3615 17.6069C3.39231 17.1092 2.48914 16.5291 1.60179 15.7222C5.82615 13.5036 10.7402 14.1887 14.4084 17.4652C13.1061 18.1641 11.7853 18.5435 10.3536 18.7097ZM16.3872 12.3424L16.4938 10.4431L16.6522 14.3416C16.6667 14.7017 16.4472 15.1239 16.2814 15.4168L16.3872 12.3424ZM16.6806 16.2846L16.834 20.4137L16.2078 18.8404C16.2742 17.9752 16.4187 17.17 16.6806 16.2846ZM16.1322 20.3142C16.5935 21.4908 16.7443 22.7718 16.9314 24.1236L15.9314 26.3992L16.1322 20.3142ZM15.7663 31.8869C15.7739 29.9384 16.0637 28.0848 16.6026 26.2503C16.6933 25.9415 16.8142 25.6683 17.0017 25.3605L17.2092 31.881L15.7663 31.8869Z" fill="url(#paint0_linear_671_22)"/>
<path d="M32.1461 29.0678C32.268 29.0678 32.4739 28.9493 32.4802 28.8415C32.4863 28.7337 32.3739 28.5347 32.2826 28.4621H27.4101C24.7328 28.4479 22.2566 29.6652 20.4564 31.8841L17.7542 31.889L17.6996 30.6682C19.9632 27.3103 23.4599 25.3148 27.2407 25.2933L32.3033 25.2865C32.3961 25.2146 32.4962 24.9969 32.4711 24.8938C32.446 24.791 32.2556 24.6777 32.1411 24.6777L27.5843 24.6742C23.7544 24.6713 20.2551 26.359 17.704 29.6451L17.5345 25.4498C20.3674 22.7931 23.9433 21.491 27.6608 21.4964L32.2292 21.5033C32.3252 21.5033 32.5254 21.2886 32.483 21.1938C32.4477 21.1146 32.3503 20.9768 32.2815 20.895L27.0707 20.903C23.5822 20.96 20.3307 22.2413 17.5313 24.6333L17.3271 19.0388L18.0753 17.9173C19.6838 18.73 21.3024 19.3073 23.098 19.321C23.2429 19.3222 23.2458 18.8251 23.2015 18.6693L23.8151 19.3946C25.3105 19.3156 26.703 19.0811 28.0932 18.4924L28.104 17.9373L28.5678 18.3047C29.8738 17.6747 30.9605 16.9036 32.0463 15.9227C32.0909 15.8213 32.1552 15.6251 32.1297 15.5388C32.1041 15.4525 31.9761 15.3596 31.8704 15.3017C27.4613 12.8776 22.2258 13.4601 18.3632 16.8582L17.3033 17.9407L17.205 14.8667C18.97 14.843 20.6506 14.5485 22.2648 13.7662C22.2216 13.5102 22.1273 13.2941 22.0229 13.0896L22.8453 13.514C24.1608 12.7412 25.3133 11.9289 26.3506 10.7499C26.444 10.644 26.3206 10.2863 26.2329 10.2019L26.8068 10.2551C27.525 9.4412 29.3729 6.32396 29.02 6.13602L28.7682 6.00198C23.9737 5.82255 19.6232 8.55893 17.1702 13.3074L16.7513 0.751664C16.7481 0.657102 16.5615 0.466796 16.4822 0.491146C16.4029 0.515732 16.2868 0.625187 16.2181 0.732988L15.8089 13.2866C15.0582 11.9724 14.3329 10.8686 13.3464 9.85018C10.8714 7.21663 7.55951 5.86439 4.14172 6.0034L3.92426 6.19039C3.68528 6.39583 5.41991 9.45514 6.17016 10.2596L6.7367 10.1859L6.56564 10.583C6.53063 10.6646 6.69494 10.8395 6.75843 10.91C7.74491 12.0069 8.86849 12.7885 10.1237 13.5161L10.9602 13.0967C10.8151 13.2293 10.6105 13.7331 10.8067 13.8251C12.3749 14.5594 13.9787 14.8423 15.7515 14.857L15.6752 17.9326C11.817 13.6338 5.92402 12.6067 1.04032 15.3312C0.951728 15.3806 0.825597 15.5187 0.818425 15.6109C0.779616 16.105 3.41805 17.9295 4.44482 18.3059L4.88775 17.9109L4.82996 18.3277C4.77006 18.7596 8.09968 19.4714 9.24478 19.3617L9.75753 18.6345L9.73201 19.0908C9.72737 19.1759 9.84591 19.2877 9.94652 19.3572C11.7086 19.2414 13.3179 18.7558 14.8952 17.9005L15.6239 18.9693L15.4448 24.652C12.7613 22.3321 9.58626 20.939 6.21762 20.922L0.761687 20.8943C0.620158 20.8936 0.464497 21.1402 0.495292 21.2752C0.519548 21.3801 0.708957 21.5125 0.829393 21.512L5.31424 21.4981C7.52724 21.4912 9.66536 21.9123 11.698 22.8848C11.8988 22.7097 14.5839 24.7222 15.425 25.4075L15.2829 29.6784C13.7997 27.7652 11.9986 26.3132 9.86489 25.5002L9.62107 25.4498L9.49852 25.4245L9.06761 25.2401C8.95476 25.2014 8.84234 25.165 8.73097 25.1312C7.57596 24.7801 6.51101 24.6867 5.81792 24.686L0.761687 24.6803C0.61826 24.6803 0.467661 24.9219 0.494659 25.0588C0.515751 25.1664 0.705582 25.2947 0.831292 25.2945L5.30812 25.2877C6.12566 25.2865 6.85882 25.3562 7.69239 25.4758C7.80102 25.4914 8.97227 25.8181 9.41879 25.9765C9.47047 25.995 9.51244 26.011 9.54197 26.0241C11.8398 26.8869 13.8186 28.512 15.2704 30.6689L15.1985 31.8961L12.5065 31.8864C10.8919 29.8685 8.68499 28.7056 6.33342 28.4815C6.33342 28.4815 6.32857 28.4796 6.07693 28.463L0.840361 28.459C0.713808 28.459 0.542117 28.5744 0.498456 28.6706C0.454795 28.7671 0.586832 29.0692 0.707691 29.0692H5.48087C7.79659 29.0687 10.0096 29.9486 11.7263 31.8779H0.845001C0.686177 31.8779 0.512588 32.0311 0.490652 32.1441C0.472512 32.2375 0.588942 32.4893 0.691028 32.489L32.2864 32.4883C32.4178 32.4883 32.5178 32.1696 32.4657 32.0737C32.422 31.9937 32.2503 31.8784 32.1328 31.8784H21.245C22.9438 29.9822 25.1253 29.0739 27.4122 29.072L32.1461 29.0678ZM31.3621 15.7159C30.4746 16.5187 29.5851 17.1069 28.6064 17.5981L27.3523 16.2681C27.2656 16.2497 27.0728 16.2345 27.03 16.3057C26.9874 16.3768 26.9515 16.5374 26.9344 16.6374L27.51 18.0683C26.3814 18.496 25.2186 18.7165 24.0005 18.7574L22.7989 16.9508C22.7487 16.8752 22.5629 16.7676 22.4901 16.7998C22.4028 16.8383 22.3064 17.0265 22.2779 17.1416L22.6181 18.7132C21.1893 18.5418 19.8628 18.174 18.5616 17.4676C22.2306 14.1672 27.1445 13.5253 31.3621 15.7159ZM28.3187 6.62585C27.8612 7.76461 27.2586 8.69203 26.5527 9.61874L24.9766 9.03316C24.9001 9.00456 24.6601 9.04829 24.6603 9.12702L24.6617 9.52417L25.7178 10.5589C24.8436 11.5107 23.864 12.2329 22.7961 12.839L21.0229 11.7544C20.9541 11.7123 20.7635 11.7211 20.6968 11.7639C20.6169 11.8152 20.5833 12.1005 20.6605 12.2112L21.5224 13.4445C20.1782 13.9676 18.8696 14.2393 17.3885 14.2286C19.441 9.59817 23.621 6.58566 28.3187 6.62585ZM11.4428 13.4478L12.3048 12.2223C12.3616 12.1416 12.3789 11.8963 12.3221 11.8156C12.2656 11.735 12.0384 11.6953 11.9545 11.7469L10.188 12.832C9.09038 12.2603 8.13174 11.4757 7.24102 10.5785L8.26209 9.55349C8.32453 9.4906 8.35469 9.26366 8.33866 9.18848C8.3182 9.09439 8.10685 8.98919 8.02417 9.01992L6.41272 9.61897C5.70149 8.68092 5.07653 7.72041 4.64456 6.61734C9.32134 6.60741 13.474 9.53978 15.5763 14.2057C14.173 14.2769 12.8281 13.9683 11.4428 13.4478ZM10.3536 18.7097L10.6938 17.1286L10.5377 16.8246C10.4918 16.735 10.2306 16.8565 10.1733 16.9435L8.98324 18.748C7.7892 18.7392 6.64326 18.4898 5.46041 18.0872L6.01977 16.6582C6.0512 16.578 6.01324 16.3258 5.94173 16.2993C5.85631 16.2676 5.68546 16.2792 5.57789 16.3043L4.3615 17.6069C3.39231 17.1092 2.48914 16.5291 1.60179 15.7222C5.82615 13.5036 10.7402 14.1887 14.4084 17.4652C13.1061 18.1641 11.7853 18.5435 10.3536 18.7097ZM16.3872 12.3424L16.4938 10.4431L16.6522 14.3416C16.6667 14.7017 16.4472 15.1239 16.2814 15.4168L16.3872 12.3424ZM16.6806 16.2846L16.834 20.4137L16.2078 18.8404C16.2742 17.9752 16.4187 17.17 16.6806 16.2846ZM16.1322 20.3142C16.5935 21.4908 16.7443 22.7718 16.9314 24.1236L15.9314 26.3992L16.1322 20.3142ZM15.7663 31.8869C15.7739 29.9384 16.0637 28.0848 16.6026 26.2503C16.6933 25.9415 16.8142 25.6683 17.0017 25.3605L17.2092 31.881L15.7663 31.8869Z" stroke="url(#paint1_linear_671_22)" stroke-width="0.977622" mask="url(#path-1-outside-1_671_22)"/>
<defs>
<linearGradient id="paint0_linear_671_22" x1="16.4888" y1="23.9683" x2="16.4888" y2="32.489" gradientUnits="userSpaceOnUse">
<stop stop-color="#23C867"/>
<stop offset="1" stop-color="#AD6430"/>
</linearGradient>
<linearGradient id="paint1_linear_671_22" x1="16.4888" y1="22.521" x2="16.4888" y2="32.489" gradientUnits="userSpaceOnUse">
<stop stop-color="#23C867"/>
<stop offset="1" stop-color="#AD6430"/>
</linearGradient>
</defs>
</svg>
