<svg width="196" height="50" viewBox="0 0 196 50" fill="none" xmlns="http://www.w3.org/2000/svg">
<g clip-path="url(#clip0_457_195)">
<g clip-path="url(#clip1_457_195)">
<path d="M14.3232 36.473C14.33 36.4774 14.3358 36.4805 14.3405 36.4818C14.4007 36.5014 14.4609 36.5211 14.5208 36.541C14.4734 36.5224 14.4061 36.4994 14.3232 36.473Z" fill="url(#paint0_linear_457_195)"/>
<mask id="path-2-outside-1_457_195" maskUnits="userSpaceOnUse" x="-0.999512" y="-1.00008" width="53" height="48" fill="black">
<rect fill="white" x="-0.999512" y="-1.00008" width="53" height="48"/>
<path d="M50.7762 40.8969C50.9717 40.8969 51.3019 40.7274 51.3121 40.5732C51.3219 40.4189 51.1416 40.134 50.9951 40.0302H43.18C38.8859 40.0099 34.9142 41.7518 32.0268 44.9271L27.6928 44.9342L27.6052 43.1872C31.2359 38.382 36.8442 35.5264 42.9083 35.4956L51.0282 35.4858C51.1771 35.3829 51.3378 35.0713 51.2975 34.9238C51.2573 34.7767 50.9518 34.6146 50.7681 34.6146L43.4594 34.6096C37.3165 34.6055 31.7041 37.0206 27.6123 41.723L27.3403 35.7195C31.8841 31.9177 37.6196 30.0543 43.5822 30.0621L50.9095 30.0719C51.0634 30.0719 51.3845 29.7647 51.3165 29.6291C51.26 29.5158 51.1037 29.3185 50.9934 29.2015L42.6356 29.213C37.0405 29.2945 31.8252 31.1281 27.3353 34.551L27.0078 26.5451L28.2077 24.9402C30.7876 26.1033 33.3838 26.9294 36.2637 26.9491C36.4961 26.9507 36.5009 26.2393 36.4298 26.0164L37.4139 27.0543C39.8125 26.9413 42.046 26.6057 44.2757 25.7633L44.293 24.969L45.0369 25.4947C47.1317 24.5931 48.8746 23.4896 50.6162 22.086C50.6876 21.9408 50.7907 21.66 50.7498 21.5366C50.7089 21.4131 50.5035 21.2801 50.334 21.1972C43.2622 17.7283 34.8648 18.5619 28.6695 23.4246L26.9695 24.9737L26.8119 20.5748C29.6428 20.5409 32.3384 20.1194 34.9274 19C34.8581 18.6336 34.7069 18.3244 34.5394 18.0318L35.8584 18.639C37.9684 17.5331 39.8169 16.3707 41.4807 14.6836C41.6305 14.532 41.4326 14.0202 41.2919 13.8994L42.2124 13.9755C43.3643 12.8107 46.3282 8.3499 45.7622 8.08095L45.3583 7.88913C37.6683 7.63236 30.6905 11.5482 26.7561 18.3433L26.0842 0.375783C26.0791 0.240463 25.7797 -0.0318704 25.6525 0.00297471C25.5253 0.0381581 25.3393 0.194792 25.229 0.349058L24.5727 18.3136C23.3687 16.4329 22.2052 14.8534 20.623 13.396C16.6534 9.62733 11.3414 7.69224 5.85951 7.89116L5.51072 8.15876C5.12743 8.45274 7.90962 12.8307 9.11296 13.9819L10.0216 13.8764L9.74728 14.4447C9.69112 14.5615 9.95466 14.8118 10.0565 14.9126C11.6387 16.4823 13.4409 17.6008 15.4541 18.6421L16.7958 18.0419C16.563 18.2317 16.2349 18.9526 16.5495 19.0842C19.0648 20.135 21.6372 20.5399 24.4807 20.5609L24.3582 24.9622C18.17 18.8105 8.71816 17.3406 0.885122 21.2395C0.743035 21.3102 0.540731 21.5078 0.529228 21.6397C0.466981 22.3468 4.6988 24.9578 6.34565 25.4964L7.05609 24.9311L6.96339 25.5275C6.86731 26.1456 12.2077 27.1642 14.0444 27.0072L14.8668 25.9666L14.8259 26.6196C14.8184 26.7413 15.0085 26.9014 15.1699 27.0008C17.9961 26.835 20.5773 26.1402 23.1072 24.9162L24.276 26.4457L23.9888 34.5778C19.6846 31.258 14.5921 29.2644 9.18908 29.24L0.438225 29.2005C0.211224 29.1994 -0.0384423 29.5523 0.0109498 29.7455C0.0498545 29.8957 0.35365 30.0851 0.54682 30.0844L7.74013 30.0645C11.2896 30.0547 14.719 30.6572 17.9792 32.049C18.3012 31.7983 22.6078 34.6782 23.957 35.659L23.729 41.7707C21.35 39.0329 18.4613 36.955 15.039 35.7916L14.6479 35.7195H14.6469L14.4514 35.6833L13.7602 35.4195H13.7599C13.5789 35.364 13.3989 35.3119 13.2203 35.2635C11.3677 34.7611 9.65966 34.6275 8.548 34.6265L0.438225 34.6184C0.20818 34.6184 -0.0333678 34.9641 0.00993488 35.16C0.0437651 35.3139 0.348237 35.4976 0.549865 35.4973L7.73032 35.4875C9.04158 35.4858 10.2175 35.5856 11.5545 35.7567C11.7287 35.7791 13.6073 36.2466 14.3235 36.4733C14.4064 36.4997 14.4737 36.5227 14.5211 36.5413C18.2065 37.7761 21.3805 40.1016 23.709 43.1882L23.5936 44.9444L19.2759 44.9305C16.6862 42.0427 13.1465 40.3786 9.37481 40.0579C9.37481 40.0579 9.36703 40.0552 8.96343 40.0315L0.564412 40.0258C0.36143 40.0258 0.0860528 40.1909 0.0160243 40.3286C-0.0540042 40.4666 0.157773 40.8989 0.35162 40.8989H8.00739C11.7216 40.8983 15.2711 42.1574 18.0245 44.9183H0.571854C0.317113 44.9183 0.0386905 45.1375 0.00350715 45.2992C-0.0255868 45.4329 0.161156 45.7931 0.324894 45.7928L51.0012 45.7918C51.2119 45.7918 51.3723 45.3358 51.2887 45.1984C51.2187 45.0841 50.9433 44.919 50.7549 44.919H33.2917C36.0164 42.2055 39.5155 40.9057 43.1833 40.903L50.7762 40.8972V40.8969ZM49.5187 21.79C48.0951 22.9388 46.6685 23.7805 45.0988 24.4835L43.0873 22.5802C42.9482 22.5538 42.639 22.5322 42.5703 22.634C42.502 22.7358 42.4445 22.9656 42.4171 23.1087L43.3403 25.1564C41.5301 25.7684 39.665 26.084 37.7113 26.1425L35.784 23.5572C35.7035 23.449 35.4054 23.2951 35.2887 23.3411C35.1487 23.3962 34.9941 23.6655 34.9484 23.8302L35.4941 26.0793C33.2024 25.834 31.0748 25.3076 28.9879 24.2968C34.8726 19.5737 42.754 18.6552 49.5187 21.79ZM44.6374 8.78191C43.9036 10.4115 42.9371 11.7387 41.8048 13.0648L39.277 12.2268C39.1542 12.1859 38.7692 12.2485 38.7695 12.3611L38.7719 12.9295L40.4658 14.4102C39.0635 15.7722 37.4924 16.8058 35.7796 17.6732L32.9355 16.121C32.8252 16.0608 32.5194 16.0733 32.4125 16.1346C32.2843 16.208 32.2305 16.6163 32.3543 16.7746L33.7366 18.5395C31.5806 19.2882 29.4818 19.6769 27.1062 19.6617C30.3982 13.0354 37.1027 8.7244 44.6374 8.78191ZM17.5698 18.5443L18.9525 16.7905C19.0435 16.6752 19.0712 16.324 18.9802 16.2086C18.8895 16.0933 18.5252 16.0365 18.3906 16.1102L15.5573 17.663C13.7968 16.845 12.2592 15.7222 10.8305 14.4383L12.4682 12.9714C12.5684 12.8814 12.6168 12.5567 12.591 12.4491C12.5582 12.3145 12.2192 12.1639 12.0866 12.2079L9.50201 13.0651C8.36125 11.7228 7.35887 10.3482 6.66602 8.76973C14.1672 8.75552 20.8277 12.9518 24.1995 19.6289C21.9488 19.7307 19.7918 19.2892 17.5698 18.5443ZM15.8228 26.0742L16.3685 23.8116L16.1182 23.3766C16.0444 23.2484 15.6256 23.4223 15.5336 23.5468L13.6249 26.129C11.7098 26.1165 9.87177 25.7596 7.97458 25.1835L8.87175 23.1384C8.92216 23.0237 8.86126 22.6628 8.74658 22.6249C8.60957 22.5796 8.33554 22.5961 8.16301 22.632L6.21202 24.496C4.65753 23.7839 3.20892 22.9537 1.78568 21.7991C8.56119 18.6241 16.4429 19.6045 22.3264 24.2934C20.2377 25.2934 18.1192 25.8364 15.8228 26.0742ZM25.5003 16.9624L25.6711 14.2445L25.9252 19.8234C25.9486 20.3386 25.5964 20.9428 25.3305 21.362L25.5003 16.9624ZM25.9709 22.6039L26.2168 28.5127L25.2124 26.2613C25.319 25.0231 25.5507 23.8708 25.9709 22.6039ZM25.0913 28.3703C25.8312 30.054 26.073 31.8872 26.3731 33.8217L24.7692 37.0782L25.0913 28.3703ZM24.5043 44.9312C24.5165 42.1429 24.9813 39.4902 25.8457 36.865C25.9912 36.4232 26.185 36.0321 26.4858 35.5917L26.8187 44.9227L24.5043 44.9312Z"/>
</mask>
<path d="M50.7762 40.8969C50.9717 40.8969 51.3019 40.7274 51.3121 40.5732C51.3219 40.4189 51.1416 40.134 50.9951 40.0302H43.18C38.8859 40.0099 34.9142 41.7518 32.0268 44.9271L27.6928 44.9342L27.6052 43.1872C31.2359 38.382 36.8442 35.5264 42.9083 35.4956L51.0282 35.4858C51.1771 35.3829 51.3378 35.0713 51.2975 34.9238C51.2573 34.7767 50.9518 34.6146 50.7681 34.6146L43.4594 34.6096C37.3165 34.6055 31.7041 37.0206 27.6123 41.723L27.3403 35.7195C31.8841 31.9177 37.6196 30.0543 43.5822 30.0621L50.9095 30.0719C51.0634 30.0719 51.3845 29.7647 51.3165 29.6291C51.26 29.5158 51.1037 29.3185 50.9934 29.2015L42.6356 29.213C37.0405 29.2945 31.8252 31.1281 27.3353 34.551L27.0078 26.5451L28.2077 24.9402C30.7876 26.1033 33.3838 26.9294 36.2637 26.9491C36.4961 26.9507 36.5009 26.2393 36.4298 26.0164L37.4139 27.0543C39.8125 26.9413 42.046 26.6057 44.2757 25.7633L44.293 24.969L45.0369 25.4947C47.1317 24.5931 48.8746 23.4896 50.6162 22.086C50.6876 21.9408 50.7907 21.66 50.7498 21.5366C50.7089 21.4131 50.5035 21.2801 50.334 21.1972C43.2622 17.7283 34.8648 18.5619 28.6695 23.4246L26.9695 24.9737L26.8119 20.5748C29.6428 20.5409 32.3384 20.1194 34.9274 19C34.8581 18.6336 34.7069 18.3244 34.5394 18.0318L35.8584 18.639C37.9684 17.5331 39.8169 16.3707 41.4807 14.6836C41.6305 14.532 41.4326 14.0202 41.2919 13.8994L42.2124 13.9755C43.3643 12.8107 46.3282 8.3499 45.7622 8.08095L45.3583 7.88913C37.6683 7.63236 30.6905 11.5482 26.7561 18.3433L26.0842 0.375783C26.0791 0.240463 25.7797 -0.0318704 25.6525 0.00297471C25.5253 0.0381581 25.3393 0.194792 25.229 0.349058L24.5727 18.3136C23.3687 16.4329 22.2052 14.8534 20.623 13.396C16.6534 9.62733 11.3414 7.69224 5.85951 7.89116L5.51072 8.15876C5.12743 8.45274 7.90962 12.8307 9.11296 13.9819L10.0216 13.8764L9.74728 14.4447C9.69112 14.5615 9.95466 14.8118 10.0565 14.9126C11.6387 16.4823 13.4409 17.6008 15.4541 18.6421L16.7958 18.0419C16.563 18.2317 16.2349 18.9526 16.5495 19.0842C19.0648 20.135 21.6372 20.5399 24.4807 20.5609L24.3582 24.9622C18.17 18.8105 8.71816 17.3406 0.885122 21.2395C0.743035 21.3102 0.540731 21.5078 0.529228 21.6397C0.466981 22.3468 4.6988 24.9578 6.34565 25.4964L7.05609 24.9311L6.96339 25.5275C6.86731 26.1456 12.2077 27.1642 14.0444 27.0072L14.8668 25.9666L14.8259 26.6196C14.8184 26.7413 15.0085 26.9014 15.1699 27.0008C17.9961 26.835 20.5773 26.1402 23.1072 24.9162L24.276 26.4457L23.9888 34.5778C19.6846 31.258 14.5921 29.2644 9.18908 29.24L0.438225 29.2005C0.211224 29.1994 -0.0384423 29.5523 0.0109498 29.7455C0.0498545 29.8957 0.35365 30.0851 0.54682 30.0844L7.74013 30.0645C11.2896 30.0547 14.719 30.6572 17.9792 32.049C18.3012 31.7983 22.6078 34.6782 23.957 35.659L23.729 41.7707C21.35 39.0329 18.4613 36.955 15.039 35.7916L14.6479 35.7195H14.6469L14.4514 35.6833L13.7602 35.4195H13.7599C13.5789 35.364 13.3989 35.3119 13.2203 35.2635C11.3677 34.7611 9.65966 34.6275 8.548 34.6265L0.438225 34.6184C0.20818 34.6184 -0.0333678 34.9641 0.00993488 35.16C0.0437651 35.3139 0.348237 35.4976 0.549865 35.4973L7.73032 35.4875C9.04158 35.4858 10.2175 35.5856 11.5545 35.7567C11.7287 35.7791 13.6073 36.2466 14.3235 36.4733C14.4064 36.4997 14.4737 36.5227 14.5211 36.5413C18.2065 37.7761 21.3805 40.1016 23.709 43.1882L23.5936 44.9444L19.2759 44.9305C16.6862 42.0427 13.1465 40.3786 9.37481 40.0579C9.37481 40.0579 9.36703 40.0552 8.96343 40.0315L0.564412 40.0258C0.36143 40.0258 0.0860528 40.1909 0.0160243 40.3286C-0.0540042 40.4666 0.157773 40.8989 0.35162 40.8989H8.00739C11.7216 40.8983 15.2711 42.1574 18.0245 44.9183H0.571854C0.317113 44.9183 0.0386905 45.1375 0.00350715 45.2992C-0.0255868 45.4329 0.161156 45.7931 0.324894 45.7928L51.0012 45.7918C51.2119 45.7918 51.3723 45.3358 51.2887 45.1984C51.2187 45.0841 50.9433 44.919 50.7549 44.919H33.2917C36.0164 42.2055 39.5155 40.9057 43.1833 40.903L50.7762 40.8972V40.8969ZM49.5187 21.79C48.0951 22.9388 46.6685 23.7805 45.0988 24.4835L43.0873 22.5802C42.9482 22.5538 42.639 22.5322 42.5703 22.634C42.502 22.7358 42.4445 22.9656 42.4171 23.1087L43.3403 25.1564C41.5301 25.7684 39.665 26.084 37.7113 26.1425L35.784 23.5572C35.7035 23.449 35.4054 23.2951 35.2887 23.3411C35.1487 23.3962 34.9941 23.6655 34.9484 23.8302L35.4941 26.0793C33.2024 25.834 31.0748 25.3076 28.9879 24.2968C34.8726 19.5737 42.754 18.6552 49.5187 21.79ZM44.6374 8.78191C43.9036 10.4115 42.9371 11.7387 41.8048 13.0648L39.277 12.2268C39.1542 12.1859 38.7692 12.2485 38.7695 12.3611L38.7719 12.9295L40.4658 14.4102C39.0635 15.7722 37.4924 16.8058 35.7796 17.6732L32.9355 16.121C32.8252 16.0608 32.5194 16.0733 32.4125 16.1346C32.2843 16.208 32.2305 16.6163 32.3543 16.7746L33.7366 18.5395C31.5806 19.2882 29.4818 19.6769 27.1062 19.6617C30.3982 13.0354 37.1027 8.7244 44.6374 8.78191ZM17.5698 18.5443L18.9525 16.7905C19.0435 16.6752 19.0712 16.324 18.9802 16.2086C18.8895 16.0933 18.5252 16.0365 18.3906 16.1102L15.5573 17.663C13.7968 16.845 12.2592 15.7222 10.8305 14.4383L12.4682 12.9714C12.5684 12.8814 12.6168 12.5567 12.591 12.4491C12.5582 12.3145 12.2192 12.1639 12.0866 12.2079L9.50201 13.0651C8.36125 11.7228 7.35887 10.3482 6.66602 8.76973C14.1672 8.75552 20.8277 12.9518 24.1995 19.6289C21.9488 19.7307 19.7918 19.2892 17.5698 18.5443ZM15.8228 26.0742L16.3685 23.8116L16.1182 23.3766C16.0444 23.2484 15.6256 23.4223 15.5336 23.5468L13.6249 26.129C11.7098 26.1165 9.87177 25.7596 7.97458 25.1835L8.87175 23.1384C8.92216 23.0237 8.86126 22.6628 8.74658 22.6249C8.60957 22.5796 8.33554 22.5961 8.16301 22.632L6.21202 24.496C4.65753 23.7839 3.20892 22.9537 1.78568 21.7991C8.56119 18.6241 16.4429 19.6045 22.3264 24.2934C20.2377 25.2934 18.1192 25.8364 15.8228 26.0742ZM25.5003 16.9624L25.6711 14.2445L25.9252 19.8234C25.9486 20.3386 25.5964 20.9428 25.3305 21.362L25.5003 16.9624ZM25.9709 22.6039L26.2168 28.5127L25.2124 26.2613C25.319 25.0231 25.5507 23.8708 25.9709 22.6039ZM25.0913 28.3703C25.8312 30.054 26.073 31.8872 26.3731 33.8217L24.7692 37.0782L25.0913 28.3703ZM24.5043 44.9312C24.5165 42.1429 24.9813 39.4902 25.8457 36.865C25.9912 36.4232 26.185 36.0321 26.4858 35.5917L26.8187 44.9227L24.5043 44.9312Z" fill="url(#paint1_linear_457_195)"/>
<path d="M50.7762 40.8969C50.9717 40.8969 51.3019 40.7274 51.3121 40.5732C51.3219 40.4189 51.1416 40.134 50.9951 40.0302H43.18C38.8859 40.0099 34.9142 41.7518 32.0268 44.9271L27.6928 44.9342L27.6052 43.1872C31.2359 38.382 36.8442 35.5264 42.9083 35.4956L51.0282 35.4858C51.1771 35.3829 51.3378 35.0713 51.2975 34.9238C51.2573 34.7767 50.9518 34.6146 50.7681 34.6146L43.4594 34.6096C37.3165 34.6055 31.7041 37.0206 27.6123 41.723L27.3403 35.7195C31.8841 31.9177 37.6196 30.0543 43.5822 30.0621L50.9095 30.0719C51.0634 30.0719 51.3845 29.7647 51.3165 29.6291C51.26 29.5158 51.1037 29.3185 50.9934 29.2015L42.6356 29.213C37.0405 29.2945 31.8252 31.1281 27.3353 34.551L27.0078 26.5451L28.2077 24.9402C30.7876 26.1033 33.3838 26.9294 36.2637 26.9491C36.4961 26.9507 36.5009 26.2393 36.4298 26.0164L37.4139 27.0543C39.8125 26.9413 42.046 26.6057 44.2757 25.7633L44.293 24.969L45.0369 25.4947C47.1317 24.5931 48.8746 23.4896 50.6162 22.086C50.6876 21.9408 50.7907 21.66 50.7498 21.5366C50.7089 21.4131 50.5035 21.2801 50.334 21.1972C43.2622 17.7283 34.8648 18.5619 28.6695 23.4246L26.9695 24.9737L26.8119 20.5748C29.6428 20.5409 32.3384 20.1194 34.9274 19C34.8581 18.6336 34.7069 18.3244 34.5394 18.0318L35.8584 18.639C37.9684 17.5331 39.8169 16.3707 41.4807 14.6836C41.6305 14.532 41.4326 14.0202 41.2919 13.8994L42.2124 13.9755C43.3643 12.8107 46.3282 8.3499 45.7622 8.08095L45.3583 7.88913C37.6683 7.63236 30.6905 11.5482 26.7561 18.3433L26.0842 0.375783C26.0791 0.240463 25.7797 -0.0318704 25.6525 0.00297471C25.5253 0.0381581 25.3393 0.194792 25.229 0.349058L24.5727 18.3136C23.3687 16.4329 22.2052 14.8534 20.623 13.396C16.6534 9.62733 11.3414 7.69224 5.85951 7.89116L5.51072 8.15876C5.12743 8.45274 7.90962 12.8307 9.11296 13.9819L10.0216 13.8764L9.74728 14.4447C9.69112 14.5615 9.95466 14.8118 10.0565 14.9126C11.6387 16.4823 13.4409 17.6008 15.4541 18.6421L16.7958 18.0419C16.563 18.2317 16.2349 18.9526 16.5495 19.0842C19.0648 20.135 21.6372 20.5399 24.4807 20.5609L24.3582 24.9622C18.17 18.8105 8.71816 17.3406 0.885122 21.2395C0.743035 21.3102 0.540731 21.5078 0.529228 21.6397C0.466981 22.3468 4.6988 24.9578 6.34565 25.4964L7.05609 24.9311L6.96339 25.5275C6.86731 26.1456 12.2077 27.1642 14.0444 27.0072L14.8668 25.9666L14.8259 26.6196C14.8184 26.7413 15.0085 26.9014 15.1699 27.0008C17.9961 26.835 20.5773 26.1402 23.1072 24.9162L24.276 26.4457L23.9888 34.5778C19.6846 31.258 14.5921 29.2644 9.18908 29.24L0.438225 29.2005C0.211224 29.1994 -0.0384423 29.5523 0.0109498 29.7455C0.0498545 29.8957 0.35365 30.0851 0.54682 30.0844L7.74013 30.0645C11.2896 30.0547 14.719 30.6572 17.9792 32.049C18.3012 31.7983 22.6078 34.6782 23.957 35.659L23.729 41.7707C21.35 39.0329 18.4613 36.955 15.039 35.7916L14.6479 35.7195H14.6469L14.4514 35.6833L13.7602 35.4195H13.7599C13.5789 35.364 13.3989 35.3119 13.2203 35.2635C11.3677 34.7611 9.65966 34.6275 8.548 34.6265L0.438225 34.6184C0.20818 34.6184 -0.0333678 34.9641 0.00993488 35.16C0.0437651 35.3139 0.348237 35.4976 0.549865 35.4973L7.73032 35.4875C9.04158 35.4858 10.2175 35.5856 11.5545 35.7567C11.7287 35.7791 13.6073 36.2466 14.3235 36.4733C14.4064 36.4997 14.4737 36.5227 14.5211 36.5413C18.2065 37.7761 21.3805 40.1016 23.709 43.1882L23.5936 44.9444L19.2759 44.9305C16.6862 42.0427 13.1465 40.3786 9.37481 40.0579C9.37481 40.0579 9.36703 40.0552 8.96343 40.0315L0.564412 40.0258C0.36143 40.0258 0.0860528 40.1909 0.0160243 40.3286C-0.0540042 40.4666 0.157773 40.8989 0.35162 40.8989H8.00739C11.7216 40.8983 15.2711 42.1574 18.0245 44.9183H0.571854C0.317113 44.9183 0.0386905 45.1375 0.00350715 45.2992C-0.0255868 45.4329 0.161156 45.7931 0.324894 45.7928L51.0012 45.7918C51.2119 45.7918 51.3723 45.3358 51.2887 45.1984C51.2187 45.0841 50.9433 44.919 50.7549 44.919H33.2917C36.0164 42.2055 39.5155 40.9057 43.1833 40.903L50.7762 40.8972V40.8969ZM49.5187 21.79C48.0951 22.9388 46.6685 23.7805 45.0988 24.4835L43.0873 22.5802C42.9482 22.5538 42.639 22.5322 42.5703 22.634C42.502 22.7358 42.4445 22.9656 42.4171 23.1087L43.3403 25.1564C41.5301 25.7684 39.665 26.084 37.7113 26.1425L35.784 23.5572C35.7035 23.449 35.4054 23.2951 35.2887 23.3411C35.1487 23.3962 34.9941 23.6655 34.9484 23.8302L35.4941 26.0793C33.2024 25.834 31.0748 25.3076 28.9879 24.2968C34.8726 19.5737 42.754 18.6552 49.5187 21.79ZM44.6374 8.78191C43.9036 10.4115 42.9371 11.7387 41.8048 13.0648L39.277 12.2268C39.1542 12.1859 38.7692 12.2485 38.7695 12.3611L38.7719 12.9295L40.4658 14.4102C39.0635 15.7722 37.4924 16.8058 35.7796 17.6732L32.9355 16.121C32.8252 16.0608 32.5194 16.0733 32.4125 16.1346C32.2843 16.208 32.2305 16.6163 32.3543 16.7746L33.7366 18.5395C31.5806 19.2882 29.4818 19.6769 27.1062 19.6617C30.3982 13.0354 37.1027 8.7244 44.6374 8.78191ZM17.5698 18.5443L18.9525 16.7905C19.0435 16.6752 19.0712 16.324 18.9802 16.2086C18.8895 16.0933 18.5252 16.0365 18.3906 16.1102L15.5573 17.663C13.7968 16.845 12.2592 15.7222 10.8305 14.4383L12.4682 12.9714C12.5684 12.8814 12.6168 12.5567 12.591 12.4491C12.5582 12.3145 12.2192 12.1639 12.0866 12.2079L9.50201 13.0651C8.36125 11.7228 7.35887 10.3482 6.66602 8.76973C14.1672 8.75552 20.8277 12.9518 24.1995 19.6289C21.9488 19.7307 19.7918 19.2892 17.5698 18.5443ZM15.8228 26.0742L16.3685 23.8116L16.1182 23.3766C16.0444 23.2484 15.6256 23.4223 15.5336 23.5468L13.6249 26.129C11.7098 26.1165 9.87177 25.7596 7.97458 25.1835L8.87175 23.1384C8.92216 23.0237 8.86126 22.6628 8.74658 22.6249C8.60957 22.5796 8.33554 22.5961 8.16301 22.632L6.21202 24.496C4.65753 23.7839 3.20892 22.9537 1.78568 21.7991C8.56119 18.6241 16.4429 19.6045 22.3264 24.2934C20.2377 25.2934 18.1192 25.8364 15.8228 26.0742ZM25.5003 16.9624L25.6711 14.2445L25.9252 19.8234C25.9486 20.3386 25.5964 20.9428 25.3305 21.362L25.5003 16.9624ZM25.9709 22.6039L26.2168 28.5127L25.2124 26.2613C25.319 25.0231 25.5507 23.8708 25.9709 22.6039ZM25.0913 28.3703C25.8312 30.054 26.073 31.8872 26.3731 33.8217L24.7692 37.0782L25.0913 28.3703ZM24.5043 44.9312C24.5165 42.1429 24.9813 39.4902 25.8457 36.865C25.9912 36.4232 26.185 36.0321 26.4858 35.5917L26.8187 44.9227L24.5043 44.9312Z" stroke="url(#paint2_linear_457_195)" stroke-width="0.977622" mask="url(#path-2-outside-1_457_195)"/>
<path d="M14.6465 35.7193L14.4509 35.6831L13.7598 35.4193C14.0534 35.5096 14.3498 35.609 14.6465 35.7193Z" fill="url(#paint3_linear_457_195)"/>
</g>
<path d="M67.3437 32.5448V15.4535H64.0679V12.6049H73.753V15.4535H70.4772V32.5448H67.3437ZM73.1365 32.5448L76.3839 12.6049H80.6282L83.8756 32.5448H80.7422L80.1725 28.5853V28.6423H76.6118L76.0421 32.5448H73.1365ZM76.9821 25.9362H79.8022L78.4064 16.0802H78.3494L76.9821 25.9362ZM85.3958 32.5448V12.6049H89.3268L92.3748 24.5404H92.4317V12.6049H95.2233V32.5448H92.0044L88.2443 17.9887H88.1874V32.5448H85.3958ZM101.996 32.8297C98.9195 32.8297 97.3243 31.0066 97.3243 27.8162V17.3335C97.3243 14.1431 98.9195 12.3201 101.996 12.3201C105.072 12.3201 106.668 14.1431 106.668 17.3335V19.0427H103.705V17.1341C103.705 15.7099 103.078 15.1686 102.081 15.1686C101.084 15.1686 100.458 15.7099 100.458 17.1341V28.0441C100.458 29.4684 101.084 29.9811 102.081 29.9811C103.078 29.9811 103.705 29.4684 103.705 28.0441V24.1416H102.138V21.293H106.668V27.8162C106.668 31.0066 105.072 32.8297 101.996 32.8297ZM107.853 32.5448L111.101 12.6049H115.345L118.592 32.5448H115.459L114.889 28.5853V28.6423H111.329L110.759 32.5448H107.853ZM111.699 25.9362H114.519L113.123 16.0802H113.066L111.699 25.9362ZM124.675 32.5448V12.6049H129.403C132.651 12.6049 134.046 14.1147 134.046 17.1911V17.9887C134.046 20.0397 133.42 21.3215 132.024 21.8912V21.9482C133.705 22.5179 134.36 23.9991 134.36 26.1071V27.8162C134.36 30.8927 132.736 32.5448 129.603 32.5448H124.675ZM127.808 20.7233H129.033C130.201 20.7233 130.913 20.2106 130.913 18.6154V17.5044C130.913 16.0802 130.429 15.4535 129.318 15.4535H127.808V20.7233ZM127.808 29.6963H129.603C130.657 29.6963 131.226 29.212 131.226 27.7308V25.9931C131.226 24.1416 130.628 23.5719 129.204 23.5719H127.808V29.6963ZM135.365 32.5448L138.613 12.6049H142.857L146.104 32.5448H142.971L142.401 28.5853V28.6423H138.84L138.271 32.5448H135.365ZM139.211 25.9362H142.031L140.635 16.0802H140.578L139.211 25.9362ZM147.624 32.5448V12.6049H151.556L154.603 24.5404H154.66V12.6049H157.452V32.5448H154.233L150.473 17.9887H150.416V32.5448H147.624ZM158.955 32.5448L162.202 12.6049H166.447L169.694 32.5448H166.56L165.991 28.5853V28.6423H162.43L161.86 32.5448H158.955ZM162.8 25.9362H165.62L164.225 16.0802H164.168L162.8 25.9362ZM171.214 32.5448V12.6049H175.145L178.193 24.5404H178.25V12.6049H181.042V32.5448H177.823L174.063 17.9887H174.006V32.5448H171.214ZM182.544 32.5448L185.792 12.6049H190.036L193.284 32.5448H190.15L189.58 28.5853V28.6423H186.02L185.45 32.5448H182.544ZM186.39 25.9362H189.21L187.814 16.0802H187.757L186.39 25.9362Z" fill="#114C2A"/>
<path d="M69.5958 46.1773C68.8594 46.1773 68.1957 46.0091 67.6047 45.6727C67.0229 45.3363 66.5637 44.8272 66.2274 44.1453C65.891 43.4635 65.7228 42.6089 65.7228 41.5815C65.7228 40.836 65.8182 40.1723 66.0092 39.5905C66.2001 38.9995 66.4819 38.4995 66.8547 38.0904C67.2274 37.6722 67.682 37.3585 68.2184 37.1494C68.7548 36.9312 69.3776 36.8221 70.0867 36.8221C70.6231 36.8221 71.105 36.8857 71.5323 37.013C71.9687 37.1312 72.346 37.3085 72.6642 37.5449C72.9824 37.7813 73.2324 38.0676 73.4142 38.404C73.5961 38.7404 73.7006 39.1223 73.7279 39.5496L72.0914 40.0405C72.0732 39.6314 71.9641 39.295 71.7641 39.0313C71.5732 38.7677 71.3232 38.5722 71.0141 38.4449C70.714 38.3177 70.3867 38.254 70.0322 38.254C69.514 38.254 69.0685 38.3677 68.6957 38.5949C68.323 38.8222 68.0366 39.1768 67.8366 39.6587C67.6366 40.1405 67.5365 40.7587 67.5365 41.5133C67.5365 42.0861 67.5956 42.5816 67.7138 42.9998C67.832 43.4089 68.0002 43.7453 68.2184 44.009C68.4366 44.2635 68.7003 44.4545 69.0094 44.5817C69.3185 44.6999 69.6594 44.759 70.0322 44.759C70.4595 44.759 70.8277 44.6863 71.1368 44.5408C71.455 44.3954 71.705 44.1681 71.8869 43.859C72.0778 43.5498 72.1914 43.1589 72.2278 42.6861H70.4004V41.4042H73.9325V42.9589V46H72.6778L72.7869 43.6408H72.5551C72.4187 44.2044 72.2278 44.6772 71.9823 45.059C71.7368 45.4318 71.4186 45.7136 71.0277 45.9046C70.6368 46.0864 70.1595 46.1773 69.5958 46.1773ZM80.7331 46L83.8424 36.9994H86.3653L89.4746 46H87.5927L85.2062 38.3767H85.0152L82.6014 46H80.7331ZM82.3832 44.1453V42.9316H88.0564V44.1453H82.3832ZM96.4105 46V36.9994H99.888C100.361 36.9994 100.793 37.0403 101.184 37.1221C101.584 37.1948 101.934 37.3039 102.234 37.4494C102.543 37.5949 102.802 37.7767 103.011 37.9949C103.22 38.204 103.379 38.4495 103.488 38.7313C103.597 39.0041 103.652 39.3086 103.652 39.645C103.652 39.9632 103.602 40.2542 103.502 40.5178C103.402 40.7724 103.252 40.9951 103.052 41.186C102.861 41.377 102.615 41.5361 102.315 41.6633C102.025 41.7815 101.684 41.8679 101.293 41.9225V42.0997C101.711 42.1543 102.052 42.2588 102.315 42.4134C102.588 42.568 102.806 42.7816 102.97 43.0544C103.134 43.3271 103.275 43.6771 103.393 44.1044L103.938 46H102.043L101.62 44.2544C101.538 43.8908 101.411 43.5998 101.238 43.3816C101.074 43.1635 100.865 43.0089 100.611 42.918C100.356 42.8271 100.047 42.7816 99.6835 42.7816H98.1288V46H96.4105ZM98.1288 41.4588H99.7653C100.447 41.4588 100.965 41.3315 101.32 41.0769C101.684 40.8224 101.865 40.4314 101.865 39.9041C101.865 39.3768 101.693 38.9859 101.347 38.7313C101.011 38.4768 100.493 38.3495 99.7926 38.3495H98.1288V41.4588ZM111.97 46V44.5817H114.602C115.147 44.5817 115.597 44.459 115.952 44.2135C116.316 43.9681 116.584 43.618 116.757 43.1635C116.938 42.7089 117.029 42.1634 117.029 41.527C117.029 40.9906 116.97 40.5269 116.852 40.136C116.743 39.745 116.575 39.4268 116.348 39.1814C116.12 38.9268 115.834 38.7359 115.488 38.6086C115.143 38.4813 114.738 38.4177 114.275 38.4177H111.97V36.9994H114.22C115.284 36.9994 116.152 37.1767 116.825 37.5312C117.507 37.8858 118.007 38.3949 118.325 39.0586C118.652 39.7132 118.816 40.5042 118.816 41.4315C118.816 42.0861 118.739 42.668 118.584 43.1771C118.429 43.6771 118.22 44.109 117.957 44.4726C117.693 44.8272 117.384 45.1181 117.029 45.3454C116.675 45.5727 116.293 45.7409 115.884 45.85C115.484 45.95 115.07 46 114.643 46H111.97ZM111.124 46V36.9994H112.843V46H111.124ZM126.185 46V36.9994H127.917V46H126.185ZM127.303 46V44.5817H132.908V46H127.303ZM127.303 42.0861V40.7769H132.24V42.0861H127.303ZM127.303 38.4177V36.9994H132.881V38.4177H127.303ZM140.099 46V36.9994H142.35L146.659 43.6953H146.782L146.673 36.9994H148.35V46H146.304L141.804 39.045H141.668L141.777 46H140.099Z" fill="#582908"/>
</g>
<defs>
<linearGradient id="paint0_linear_457_195" x1="14.422" y1="36.5229" x2="14.422" y2="36.541" gradientUnits="userSpaceOnUse">
<stop stop-color="#1E8A4B"/>
<stop offset="1" stop-color="#AD6430"/>
</linearGradient>
<linearGradient id="paint1_linear_457_195" x1="25.6631" y1="33.5994" x2="25.6631" y2="45.7928" gradientUnits="userSpaceOnUse">
<stop stop-color="#23C867"/>
<stop offset="1" stop-color="#AD6430"/>
</linearGradient>
<linearGradient id="paint2_linear_457_195" x1="25.6631" y1="31.5283" x2="25.6631" y2="45.7928" gradientUnits="userSpaceOnUse">
<stop stop-color="#23C867"/>
<stop offset="1" stop-color="#AD6430"/>
</linearGradient>
<linearGradient id="paint3_linear_457_195" x1="14.2031" y1="35.6394" x2="14.2031" y2="35.7193" gradientUnits="userSpaceOnUse">
<stop stop-color="#1E8A4B"/>
<stop offset="1" stop-color="#AD6430"/>
</linearGradient>
<clipPath id="clip0_457_195">
<rect width="196" height="49.9473" fill="white"/>
</clipPath>
<clipPath id="clip1_457_195">
<rect width="51.3251" height="45.7925" fill="white"/>
</clipPath>
</defs>
</svg>
